<?xml version="1.0" encoding="UTF-8" standalone="no"?>
<svg width="981px" height="65px" viewBox="0 0 981 65" version="1.1" xmlns="http://www.w3.org/2000/svg" xmlns:xlink="http://www.w3.org/1999/xlink">
    <!-- Generator: Sketch 39.1 (31720) - http://www.bohemiancoding.com/sketch -->
    <title>nashville-logo</title>
    <desc>Created with Sketch.</desc>
    <defs></defs>
    <g id="Outlined-black-for-footer" stroke="none" stroke-width="1" fill="none" fill-rule="evenodd">
        <g id="nashville-logo" transform="translate(-24.000000, -46.000000)" fill="#000000">
            <path d="M24.864,110 L30.848,110 L30.848,59.488 L47.832,110 L54.696,110 L54.696,47.08 L48.8,47.08 L48.8,93.808 L32.872,47.08 L24.864,47.08 L24.864,110 Z M90.728,110 L97.24,110 L86.152,47.08 L76.208,47.08 L65.032,110 L71.28,110 L73.92,94.16 L88,94.16 L90.728,110 Z M80.96,52.272 L87.12,89.056 L74.712,89.056 L80.96,52.272 Z M119.896,110.792 C128.168,110.792 133.712,105.952 133.712,95.568 L133.712,94.248 C133.712,84.04 129.576,80.08 121.392,74.008 C114.704,68.992 112.328,66.264 112.328,60.016 L112.328,59.664 C112.328,54.384 114.88,51.744 119.368,51.744 C123.768,51.744 126.584,53.944 126.584,60.28 L126.584,62.48 L132.744,62.48 L132.744,60.28 C132.744,50.864 127.816,46.288 119.368,46.288 C111.272,46.288 106.08,51.304 106.08,60.104 L106.08,60.368 C106.08,69.256 110.216,73.656 117.432,79.112 C124.296,84.392 127.376,87.208 127.376,94.6 L127.376,95.832 C127.376,102.08 124.648,105.336 119.896,105.336 C114.088,105.336 111.624,102.168 111.624,95.04 L111.624,92.928 L105.288,92.928 L105.288,95.04 C105.288,105.16 110.48,110.792 119.896,110.792 L119.896,110.792 Z M145.632,110 L152.232,110 L152.232,80.96 L168.776,80.96 L168.776,110 L175.464,110 L175.464,47.08 L168.776,47.08 L168.776,75.416 L152.232,75.416 L152.232,47.08 L145.632,47.08 L145.632,110 Z M201.904,102.432 L192.224,47.08 L185.712,47.08 L197.152,110 L206.216,110 L217.656,47.08 L211.496,47.08 L201.904,102.432 Z M228.344,110 L234.944,110 L234.944,47.08 L228.344,47.08 L228.344,110 Z M248.36,110 L272.12,110 L272.12,104.72 L254.96,104.72 L254.96,47.08 L248.36,47.08 L248.36,110 Z M282.984,110 L306.744,110 L306.744,104.72 L289.584,104.72 L289.584,47.08 L282.984,47.08 L282.984,110 Z M317.608,110 L342.864,110 L342.864,104.72 L324.208,104.72 L324.208,78.936 L338.464,78.936 L338.464,73.656 L324.208,73.656 L324.208,52.36 L341.72,52.36 L341.72,47.08 L317.608,47.08 L317.608,110 Z M368.464,110 L386.152,110 C397.944,110 404.192,105.776 404.192,94.16 L404.192,90.112 C404.192,82.104 400.056,78.232 393.368,76.912 C399.088,75.592 402.784,72.16 402.784,65.56 L402.784,61.16 C402.784,51.568 397.24,47.08 385.8,47.08 L368.464,47.08 L368.464,110 Z M381.752,100.408 L381.752,81.576 L384.656,81.576 C388.968,81.576 390.728,82.896 390.728,88.616 L390.728,93.104 C390.728,98.384 388.968,100.408 384.92,100.408 L381.752,100.408 Z M381.752,72.512 L381.752,56.672 L384.568,56.672 C388.088,56.672 389.936,57.64 389.936,62.392 L389.936,66.352 C389.936,71.016 388.44,72.512 384.568,72.512 L381.752,72.512 Z M436.352,47.08 L436.352,92.84 C436.352,98.12 434.944,99.968 431.6,99.968 C427.992,99.968 426.76,98.12 426.76,92.928 L426.76,47.08 L413.208,47.08 L413.208,93.192 C413.208,105.424 419.808,110.968 431.512,110.968 C443.128,110.968 449.992,105.512 449.992,93.28 L449.992,47.08 L436.352,47.08 Z M476.168,110.968 C487.344,110.968 493.592,105.248 493.592,93.808 L493.592,92.576 C493.592,80.256 487.168,76.472 479.688,71.72 C474.232,68.024 472.296,66.44 472.296,61.952 L472.296,61.6 C472.296,58.08 473.528,56.672 476.08,56.672 C478.456,56.672 480.128,57.816 480.128,62.304 L480.128,64.328 L492.888,64.328 L492.888,62.48 C492.8,51.392 486.728,46.2 476.08,46.2 C465.256,46.2 459.096,52.008 459.096,62.48 L459.096,62.832 C459.096,73.216 463.408,77.88 471.592,83.072 C477.224,86.768 480.304,88.528 480.304,94.16 L480.304,94.864 C480.304,98.912 478.984,100.672 476.168,100.672 C472.912,100.672 471.592,99 471.592,93.896 L471.592,91.432 L458.48,91.432 L458.48,93.456 C458.568,106.04 465.432,110.968 476.168,110.968 L476.168,110.968 Z M503.136,110 L516.776,110 L516.776,47.08 L503.136,47.08 L503.136,110 Z M527.464,110 L539.168,110 L539.168,70.928 L551.664,110 L564.512,110 L564.512,47.08 L552.72,47.08 L552.72,80.696 L542.072,47.08 L527.464,47.08 L527.464,110 Z M574.936,110 L604.328,110 L604.328,99.352 L588.488,99.352 L588.488,81.928 L600.28,81.928 L600.28,71.808 L588.488,71.808 L588.488,57.728 L603.448,57.728 L603.448,47.08 L574.936,47.08 L574.936,110 Z M629.624,110.968 C640.8,110.968 647.048,105.248 647.048,93.808 L647.048,92.576 C647.048,80.256 640.624,76.472 633.144,71.72 C627.688,68.024 625.752,66.44 625.752,61.952 L625.752,61.6 C625.752,58.08 626.984,56.672 629.536,56.672 C631.912,56.672 633.584,57.816 633.584,62.304 L633.584,64.328 L646.344,64.328 L646.344,62.48 C646.256,51.392 640.184,46.2 629.536,46.2 C618.712,46.2 612.552,52.008 612.552,62.48 L612.552,62.832 C612.552,73.216 616.864,77.88 625.048,83.072 C630.68,86.768 633.76,88.528 633.76,94.16 L633.76,94.864 C633.76,98.912 632.44,100.672 629.624,100.672 C626.368,100.672 625.048,99 625.048,93.896 L625.048,91.432 L611.936,91.432 L611.936,93.456 C612.024,106.04 618.888,110.968 629.624,110.968 L629.624,110.968 Z M672.344,110.968 C683.52,110.968 689.768,105.248 689.768,93.808 L689.768,92.576 C689.768,80.256 683.344,76.472 675.864,71.72 C670.408,68.024 668.472,66.44 668.472,61.952 L668.472,61.6 C668.472,58.08 669.704,56.672 672.256,56.672 C674.632,56.672 676.304,57.816 676.304,62.304 L676.304,64.328 L689.064,64.328 L689.064,62.48 C688.976,51.392 682.904,46.2 672.256,46.2 C661.432,46.2 655.272,52.008 655.272,62.48 L655.272,62.832 C655.272,73.216 659.584,77.88 667.768,83.072 C673.4,86.768 676.48,88.528 676.48,94.16 L676.48,94.864 C676.48,98.912 675.16,100.672 672.344,100.672 C669.088,100.672 667.768,99 667.768,93.896 L667.768,91.432 L654.656,91.432 L654.656,93.456 C654.744,106.04 661.608,110.968 672.344,110.968 L672.344,110.968 Z M718.624,110.528 C729.008,110.528 734.464,104.72 734.464,93.896 L734.464,47.08 L720.824,47.08 L720.824,93.28 C720.824,97.68 718.888,99.176 715.456,99.176 C713.608,99.176 712.376,98.912 711.32,98.648 L711.32,109.208 C712.904,109.912 715.016,110.528 718.624,110.528 L718.624,110.528 Z M763.192,110.968 C774.896,110.968 782.464,104.896 782.464,91.784 L782.464,65.032 C782.464,51.832 774.632,46.2 763.192,46.2 C752.104,46.2 744.008,52.184 744.008,65.12 L744.008,92.136 C744.008,105.072 751.488,110.968 763.192,110.968 L763.192,110.968 Z M763.192,100.056 C759.496,100.056 757.824,97.768 757.824,92.048 L757.824,65.032 C757.824,59.4 759.584,57.112 763.192,57.112 C766.888,57.112 768.648,59.576 768.648,65.032 L768.648,91.96 C768.648,97.68 766.888,100.056 763.192,100.056 L763.192,100.056 Z M815.416,47.08 L815.416,92.84 C815.416,98.12 814.008,99.968 810.664,99.968 C807.056,99.968 805.824,98.12 805.824,92.928 L805.824,47.08 L792.272,47.08 L792.272,93.192 C792.272,105.424 798.872,110.968 810.576,110.968 C822.192,110.968 829.056,105.512 829.056,93.28 L829.056,47.08 L815.416,47.08 Z M839.304,110 L852.856,110 L852.856,83.776 L855.32,83.776 L862.272,110 L876.352,110 L868.08,81.664 C872.216,79.64 874.592,76.296 874.592,69.168 L874.592,62.744 C874.592,52.272 869.664,47.08 856.464,47.08 L839.304,47.08 L839.304,110 Z M852.856,75.064 L852.856,57.464 L856.024,57.464 C859.808,57.464 861.392,58.96 861.392,63.184 L861.392,68.992 C861.392,73.48 859.72,75.064 856.024,75.064 L852.856,75.064 Z M884.576,110 L896.28,110 L896.28,70.928 L908.776,110 L921.624,110 L921.624,47.08 L909.832,47.08 L909.832,80.696 L899.184,47.08 L884.576,47.08 L884.576,110 Z M955.192,110 L968.92,110 L958.888,47.08 L939.44,47.08 L929.496,110 L941.904,110 L943.576,97.152 L953.432,97.152 L955.192,110 Z M948.504,59.136 L952.2,87.736 L944.808,87.736 L948.504,59.136 Z M976.792,110 L1004.512,110 L1004.512,99.176 L990.344,99.176 L990.344,47.08 L976.792,47.08 L976.792,110 Z" id="NASHVILLE-BUSINESS-J"></path>
        </g>
    </g>
</svg>